<?xml version="1.0" encoding="UTF-8" standalone="no"?>
<svg width="179px" height="22px" viewBox="0 0 179 22" version="1.1" xmlns="http://www.w3.org/2000/svg" xmlns:xlink="http://www.w3.org/1999/xlink" xmlns:sketch="http://www.bohemiancoding.com/sketch/ns">
    <!-- Generator: Sketch 3.3.3 (12081) - http://www.bohemiancoding.com/sketch -->
    <title>hm7</title>
    <desc>Created with Sketch.</desc>
    <defs></defs>
    <g id="Page-1" stroke="none" stroke-width="1" fill="none" fill-rule="evenodd" sketch:type="MSPage">
        <g id="hm7" sketch:type="MSLayerGroup">
            <path d="M0.9607,0.407757442 L178.9007,0.407757442 L178.9007,21.0767574 L0.9607,21.0767574 L0.9607,0.407757442 Z" id="Fill-1-Copy-12" fill="#00A462" sketch:type="MSShapeGroup"></path>
            <path d="M14.43,6 L13.38,6 L13.38,10.08 L8.28,10.08 L8.28,6 L7.23,6 L7.23,15 L8.28,15 L8.28,11.055 L13.38,11.055 L13.38,15 L14.43,15 L14.43,6 Z M22.49,9.96 L17.99,9.96 L17.99,6.975 L23.255,6.975 L23.255,6 L16.94,6 L16.94,15 L23.255,15 L23.255,14.025 L17.99,14.025 L17.99,10.935 L22.49,10.935 L22.49,9.96 Z M28.855,6 L27.91,6 L24.055,15 L25.135,15 L25.975,13.005 L30.775,13.005 L31.63,15 L32.71,15 L28.855,6 Z M28.39,7.35 L30.37,12.03 L26.395,12.03 L28.39,7.35 Z M39.855,15 L39.855,14.025 L35.175,14.025 L35.175,6 L34.125,6 L34.125,15 L39.855,15 Z M39.125,6.975 L42.11,6.975 L42.11,15 L43.16,15 L43.16,6.975 L46.16,6.975 L46.16,6 L39.125,6 L39.125,6.975 Z M55.015,6 L53.965,6 L53.965,10.08 L48.865,10.08 L48.865,6 L47.815,6 L47.815,15 L48.865,15 L48.865,11.055 L53.965,11.055 L53.965,15 L55.015,15 L55.015,6 Z M63.78,13.245 C63.78,13.245 62.88,14.22 61.41,14.22 C59.385,14.22 57.99,12.54 57.99,10.515 C57.99,8.475 59.385,6.795 61.41,6.795 C62.88,6.795 63.78,7.77 63.78,7.77 L64.38,6.96 C64.38,6.96 63.42,5.805 61.395,5.805 C58.725,5.805 56.91,7.86 56.91,10.515 C56.91,13.14 58.725,15.21 61.395,15.21 C63.42,15.21 64.38,14.055 64.38,14.055 L63.78,13.245 Z M69.755,6 L68.81,6 L64.955,15 L66.035,15 L66.875,13.005 L71.675,13.005 L72.53,15 L73.61,15 L69.755,6 Z M69.29,7.35 L71.27,12.03 L67.295,12.03 L69.29,7.35 Z M75.025,6 L75.025,15 L76.075,15 L76.075,12.015 L78.76,12.015 L81.085,15 L82.18,15 L82.18,14.745 L79.945,11.865 L79.945,11.82 C81.175,11.445 81.985,10.485 81.985,9 C81.985,7.05 80.695,6 78.55,6 L75.025,6 Z M80.905,9.03 C80.905,10.41 79.975,11.04 78.655,11.04 L76.075,11.04 L76.075,6.975 L78.535,6.975 C79.975,6.975 80.905,7.635 80.905,9.03 L80.905,9.03 Z M89.595,9.96 L85.095,9.96 L85.095,6.975 L90.36,6.975 L90.36,6 L84.045,6 L84.045,15 L90.36,15 L90.36,14.025 L85.095,14.025 L85.095,10.935 L89.595,10.935 L89.595,9.96 Z M103.015,15 L104.05,15 L104.05,6 L103.33,6 L99.865,10.41 L96.4,6 L95.665,6 L95.665,15 L96.715,15 L96.715,8.01 L99.715,11.805 L100.015,11.805 L103.015,7.95 L103.015,15 Z M109.62,10.02 L109.335,10.59 L109.305,10.59 L109.035,10.02 L106.695,6 L105.465,6 L108.78,11.55 L108.78,15 L109.83,15 L109.83,11.55 L113.145,6 L111.93,6 L109.62,10.02 Z M113.735,14.145 C113.735,14.145 114.725,15.21 116.9,15.21 C119.075,15.21 120.185,14.115 120.185,12.66 C120.185,11.325 119.48,10.53 117.2,9.87 C115.385,9.33 114.83,8.955 114.83,8.22 C114.83,7.29 115.73,6.795 116.945,6.795 C118.535,6.795 119.33,7.56 119.33,7.56 L119.9,6.69 C119.9,6.69 119.045,5.805 116.945,5.805 C114.965,5.805 113.75,6.75 113.75,8.22 C113.75,9.585 114.665,10.23 116.735,10.86 C118.595,11.415 119.105,11.835 119.105,12.675 C119.105,13.59 118.445,14.22 116.885,14.22 C115.205,14.22 114.305,13.35 114.305,13.35 L113.735,14.145 Z M121.165,6.975 L124.15,6.975 L124.15,15 L125.2,15 L125.2,6.975 L128.2,6.975 L128.2,6 L121.165,6 L121.165,6.975 Z M135.405,9.96 L130.905,9.96 L130.905,6.975 L136.17,6.975 L136.17,6 L129.855,6 L129.855,15 L136.17,15 L136.17,14.025 L130.905,14.025 L130.905,10.935 L135.405,10.935 L135.405,9.96 Z M138.065,6 L138.065,15 L139.115,15 L139.115,12.015 L141.8,12.015 L144.125,15 L145.22,15 L145.22,14.745 L142.985,11.865 L142.985,11.82 C144.215,11.445 145.025,10.485 145.025,9 C145.025,7.05 143.735,6 141.59,6 L138.065,6 Z M143.945,9.03 C143.945,10.41 143.015,11.04 141.695,11.04 L139.115,11.04 L139.115,6.975 L141.575,6.975 C143.015,6.975 143.945,7.635 143.945,9.03 L143.945,9.03 Z M149.83,10.02 L149.545,10.59 L149.515,10.59 L149.245,10.02 L146.905,6 L145.675,6 L148.99,11.55 L148.99,15 L150.04,15 L150.04,11.55 L153.355,6 L152.14,6 L149.83,10.02 Z M163.955,6.255 L163.22,6.255 L162.695,8.685 L160.28,8.685 L160.805,6.255 L160.1,6.255 L159.575,8.685 L157.865,8.685 L157.73,9.36 L159.425,9.36 L158.87,11.925 L157.115,11.925 L156.965,12.6 L158.72,12.6 L158.21,15 L158.93,15 L159.44,12.6 L161.87,12.6 L161.36,15 L162.065,15 L162.575,12.6 L164.285,12.6 L164.42,11.925 L162.725,11.925 L163.28,9.36 L165.035,9.36 L165.185,8.685 L163.43,8.685 L163.955,6.255 Z M160.13,9.36 L162.56,9.36 L162.005,11.925 L159.59,11.925 L160.13,9.36 Z M166.135,6.975 L170.68,6.975 L166.795,15 L168.07,15 L172.015,6.705 L172.015,6 L166.135,6 L166.135,6.975 Z" id="HEALTHCARE-MYSTERY-#-Copy-7" fill="#FFFFFF" sketch:type="MSShapeGroup"></path>
        </g>
    </g>
</svg>