<?xml version="1.0" encoding="UTF-8" standalone="no"?>
<svg width="150px" height="23px" viewBox="0 0 150 23" version="1.1" xmlns="http://www.w3.org/2000/svg" xmlns:xlink="http://www.w3.org/1999/xlink" xmlns:sketch="http://www.bohemiancoding.com/sketch/ns">
    <!-- Generator: Sketch 3.2.2 (9983) - http://www.bohemiancoding.com/sketch -->
    <title>logo_text</title>
    <desc>Created with Sketch.</desc>
    <defs></defs>
    <g id="Page-1" stroke="none" stroke-width="1" fill="none" fill-rule="evenodd" sketch:type="MSPage">
        <g id="logo_text" sketch:type="MSLayerGroup">
            <path d="M3.09882571,0.329344538 L3.09882571,7.20305882 L10.0590853,7.20305882 L10.0590853,0.329344538 L13.0631644,0.329344538 L13.0631644,17.4881176 L10.0590853,17.4881176 L10.0590853,9.92710924 L3.09882571,9.92710924 L3.09882571,17.4881176 L0.0949320148,17.4881176 L0.0949320148,0.329344538 L3.09882571,0.329344538" id="Fill-1" fill="#18386D" sketch:type="MSShapeGroup"></path>
            <path d="M19.4981459,12.1671933 C19.5715698,14.4074706 21.2567985,15.3750168 23.1615575,15.3750168 C24.5536465,15.3750168 25.555068,15.1714958 26.4585909,14.8148992 L26.8982077,16.9788319 C25.8724969,17.4117731 24.4559333,17.7426639 22.7464153,17.7426639 C18.8877627,17.7426639 16.61644,15.2731597 16.61644,11.4798992 C16.61644,8.04304202 18.6190977,4.81009244 22.4289864,4.81009244 C26.2876391,4.81009244 27.5577256,8.11957983 27.5577256,10.843437 C27.5577256,11.4290672 27.5087763,11.8873277 27.4598269,12.1671933 L19.4981459,12.1671933 L19.4981459,12.1671933 Z M24.7245983,9.97794118 C24.7490729,8.83238655 24.2606922,6.94851261 22.2580346,6.94851261 C20.4018541,6.94851261 19.6203337,8.70501681 19.4981459,9.97794118 L24.7245983,9.97794118 L24.7245983,9.97794118 Z" id="Fill-2" fill="#18386D" sketch:type="MSShapeGroup"></path>
            <path d="M37.3258962,17.4881176 L37.1306551,16.1133361 L37.0572311,16.1133361 C36.3246601,17.0804958 35.0790482,17.7681765 33.5404821,17.7681765 C31.147157,17.7681765 29.8038319,15.9604538 29.8038319,14.0765798 C29.8038319,10.9452941 32.465822,9.3669916 36.8619901,9.39231092 L36.8619901,9.18878992 C36.8619901,8.37412605 36.5443758,7.02485714 34.4441904,7.02485714 C33.2718171,7.02485714 32.0508653,7.40677311 31.2446848,7.94137815 L30.6587763,5.90462185 C31.5378245,5.34469748 33.0763906,4.81009244 34.9570457,4.81009244 C38.7667491,4.81009244 39.8658838,7.33042857 39.8658838,10.0287731 L39.8658838,14.5097143 C39.8658838,15.629563 39.9146477,16.724479 40.0368356,17.4881176 L37.3258962,17.4881176 L37.3258962,17.4881176 Z M36.9350433,11.4290672 C34.8103832,11.3782353 32.7834363,11.8618151 32.7834363,13.7456891 C32.7834363,14.9677815 33.5404821,15.5278992 34.4929543,15.5278992 C35.6898022,15.5278992 36.5688504,14.7132353 36.8375155,13.8220336 C36.910754,13.5928067 36.9350433,13.3384538 36.9350433,13.1345462 L36.9350433,11.4290672 L36.9350433,11.4290672 Z" id="Fill-3" fill="#18386D" sketch:type="MSShapeGroup"></path>
            <path d="M44.0297281,0.101084034 L47.0580964,0.101084034 L47.0580964,17.4881176 L44.0297281,17.4881176 L44.0297281,0.101084034 Z" id="Fill-4" fill="#18386D" sketch:type="MSShapeGroup"></path>
            <path d="M54.7390606,1.89547059 L54.7390606,5.4339916 L57.5964771,5.4339916 L57.5964771,7.77612605 L54.7390606,7.77612605 L54.7390606,12.9057059 C54.7390606,14.4074706 55.1299135,15.1970084 56.2778121,15.1970084 C56.7906675,15.1970084 57.1815204,15.1202773 57.45,15.0441261 L57.4989493,17.4368992 C57.0593325,17.6152941 56.2778121,17.7426639 55.3253399,17.7426639 C54.2263906,17.7426639 53.2982077,17.3607479 52.7365884,16.724479 C52.1015451,16.0116723 51.8085909,14.8912437 51.8085909,13.261916 L51.8085909,7.77612605 L50.0990729,7.77612605 L50.0990729,5.4339916 L51.8085909,5.4339916 L51.8085909,2.63359664 L54.7390606,1.89547059" id="Fill-5" fill="#18386D" sketch:type="MSShapeGroup"></path>
            <path d="M60.8571693,0.101084034 L63.8855377,0.101084034 L63.8855377,6.79582353 L63.9343016,6.79582353 C64.3006799,6.21019328 64.789246,5.72642017 65.4241038,5.37001681 C66.0101978,5.01361345 66.7184796,4.81009244 67.4757108,4.81009244 C69.5026576,4.81009244 71.6273177,6.21019328 71.6273177,10.1816555 L71.6273177,17.4881176 L68.623424,17.4881176 L68.623424,10.5378655 C68.623424,8.73033613 67.9883807,7.3812605 66.3278121,7.3812605 C65.1554388,7.3812605 64.3251545,8.19592437 64.0077256,9.13795798 C63.9098269,9.39231092 63.8855377,9.72339496 63.8855377,10.0797983 L63.8855377,17.4881176 L60.8571693,17.4881176 L60.8571693,0.101084034" id="Fill-6" fill="#18386D" sketch:type="MSShapeGroup"></path>
            <path d="M85.7360321,9.87608403 L79.5328183,9.87608403 L79.5328183,14.9167563 L86.4684178,14.9167563 L86.4684178,17.4881176 L76.5285538,17.4881176 L76.5285538,0.329344538 L86.1024104,0.329344538 L86.1024104,2.90070588 L79.5328183,2.90070588 L79.5328183,7.33023529 L85.7360321,7.33023529 L85.7360321,9.87608403" id="Fill-7" fill="#00ACDC" sketch:type="MSShapeGroup"></path>
            <path d="M89.9734858,8.78155462 C89.9734858,7.3557479 89.9490111,6.15936134 89.8755871,5.08995798 L92.513288,5.08995798 L92.6599506,6.94851261 L92.7331891,6.94851261 C93.2458591,5.98115966 94.5404203,4.81009244 96.5186032,4.81009244 C98.594314,4.81009244 100.743634,6.21019328 100.743634,10.1306303 L100.743634,17.4881176 L97.7397404,17.4881176 L97.7397404,10.4870336 C97.7397404,8.70482353 97.1046972,7.3557479 95.4682324,7.3557479 C94.2717553,7.3557479 93.4411001,8.2467563 93.1236712,9.18859664 C93.0261434,9.46884874 93.0016687,9.85076471 93.0016687,10.2071681 L93.0016687,17.4881176 L89.9734858,17.4881176 L89.9734858,8.78155462" id="Fill-8" fill="#00ACDC" sketch:type="MSShapeGroup"></path>
            <path d="M115.701916,8.65418487 L115.701916,15.6807815 C115.701916,18.2770756 115.189061,20.135437 113.943449,21.3065042 C112.698022,22.4520588 110.988319,22.8088487 109.35204,22.8088487 C107.838133,22.8088487 106.226143,22.4775714 105.200247,21.8157899 L105.85958,19.4481429 C106.616625,19.9064034 107.886712,20.3899832 109.327565,20.3899832 C111.281459,20.3899832 112.746972,19.3211597 112.746972,16.6479412 L112.746972,15.5785378 L112.698022,15.5785378 C112.01403,16.6734538 110.793078,17.4117731 109.230037,17.4117731 C106.275093,17.4117731 104.174536,14.8661176 104.174536,11.3527227 C104.174536,7.27959664 106.71471,4.81009244 109.571941,4.81009244 C111.379172,4.81009244 112.453646,5.72642017 113.015451,6.74479832 L113.0644,6.74479832 L113.186588,5.77802521 L115.799444,5.77802521 C115.750865,6.61820168 115.701916,6.94851261 115.701916,8.65418487 Z M112.698022,10.054479 C112.698022,9.77422689 112.673362,9.46884874 112.600309,9.21430252 C112.28288,8.06855462 111.427936,7.20286555 110.158035,7.20286555 C108.472991,7.20286555 107.227379,8.73033613 107.227379,11.2510588 C107.227379,13.3637731 108.25309,15.0696387 110.13356,15.0696387 C111.256984,15.0696387 112.233931,14.3058067 112.575834,13.1857647 C112.648888,12.8546807 112.698022,12.4221261 112.698022,12.0657227 L112.698022,10.054479 L112.698022,10.054479 Z" id="Fill-9" fill="#00ACDC" sketch:type="MSShapeGroup"></path>
            <path d="M122.026205,2.65988235 C122.026205,3.60172269 121.366687,4.34004202 120.316502,4.34004202 C119.31508,4.34004202 118.655748,3.60172269 118.655748,2.65988235 C118.655748,1.69233613 119.33974,0.954016807 120.340977,0.954016807 C121.366687,0.954016807 122.001545,1.69233613 122.026205,2.65988235 L122.026205,2.65988235 Z M118.826885,5.77802521 L121.854883,5.77802521 L121.854883,17.4881176 L118.826885,17.4881176 L118.826885,5.77802521 Z" id="Fill-10" fill="#00ACDC" sketch:type="MSShapeGroup"></path>
            <path d="M125.408714,9.46942857 C125.408714,8.04381513 125.38424,6.84723529 125.310816,5.77802521 L127.948517,5.77802521 L128.095179,7.63638655 L128.168418,7.63638655 C128.681088,6.66903361 129.975649,5.49796639 131.953832,5.49796639 C134.029543,5.49796639 136.178677,6.8982605 136.178677,10.8186975 L136.178677,17.4881176 L133.174784,17.4881176 L133.174784,11.1751008 C133.174784,9.39289076 132.539926,8.04381513 130.903461,8.04381513 C129.706799,8.04381513 128.876329,8.93463025 128.5589,9.87666387 C128.461187,10.156916 128.436712,10.5388319 128.436712,10.8952353 L128.436712,17.4881176 L125.408714,17.4881176 L125.408714,9.46942857" id="Fill-11" fill="#00ACDC" sketch:type="MSShapeGroup"></path>
            <path d="M141.831768,12.1673866 C141.904821,14.4074706 143.590049,15.3750168 145.494994,15.3750168 C146.886897,15.3750168 147.888133,15.1714958 148.791842,14.8148992 L149.231459,16.9788319 C148.205748,17.4117731 146.789184,17.7426639 145.079666,17.7426639 C141.221014,17.7426639 138.949691,15.2731597 138.949691,11.4800924 C138.949691,8.04304202 140.952349,4.81009244 144.762237,4.81009244 C148.621075,4.81009244 149.890791,8.11977311 149.890791,10.843437 C149.890791,11.4290672 149.842213,11.8873277 149.793263,12.1673866 L141.831768,12.1673866 L141.831768,12.1673866 Z M147.058035,9.97813445 C147.082138,8.83219328 146.593943,6.94851261 144.591286,6.94851261 C142.735105,6.94851261 141.953585,8.70482353 141.831768,9.97813445 L147.058035,9.97813445 L147.058035,9.97813445 Z" id="Fill-12" fill="#00ACDC" sketch:type="MSShapeGroup"></path>
        </g>
    </g>
</svg>